PathFileType	4	(X/Y/Z)	/Users/itak/Documents/Research/Walk-IL/dataset/trc/00336_00011.trc
DataRate	CameraRate	NumFrames	NumMarkers	Units	OrigDataRate	OrigDataStartFrame	OrigNumFrames
100.000000	100.000000	4	55	mm	100.000000	0	458
Frame#	Time	RPSI			LPSI			L3			STRN			T10			C7			CLAV			RBAK			LBAK			LSHO			LUPA			LAEL			LAOL			LWTS			LWPS			LFRA			LIFD			LHPS			LHTS			RSHO			RUPA			RAEL			RAOL			RWTS			RWPS			RFRA			RIFD			RHTS			RHPS			RBHD			LFHD			RFHD			LBHD			LHIP			RHIP			RASI			LASI			LKNE			LTHI			LANK			LTOE			LMT1			LMT5			LHEE			RKNE			RTHI			RANK			RTIP			RTOE			RMT5			RHEE			LTIP			RMT1			*53			*54			
		X1	Y1	Z1	X2	Y2	Z2	X3	Y3	Z3	X4	Y4	Z4	X5	Y5	Z5	X6	Y6	Z6	X7	Y7	Z7	X8	Y8	Z8	X9	Y9	Z9	X10	Y10	Z10	X11	Y11	Z11	X12	Y12	Z12	X13	Y13	Z13	X14	Y14	Z14	X15	Y15	Z15	X16	Y16	Z16	X17	Y17	Z17	X18	Y18	Z18	X19	Y19	Z19	X20	Y20	Z20	X21	Y21	Z21	X22	Y22	Z22	X23	Y23	Z23	X24	Y24	Z24	X25	Y25	Z25	X26	Y26	Z26	X27	Y27	Z27	X28	Y28	Z28	X29	Y29	Z29	X30	Y30	Z30	X31	Y31	Z31	X32	Y32	Z32	X33	Y33	Z33	X34	Y34	Z34	X35	Y35	Z35	X36	Y36	Z36	X37	Y37	Z37	X38	Y38	Z38	X39	Y39	Z39	X40	Y40	Z40	X41	Y41	Z41	X42	Y42	Z42	X43	Y43	Z43	X44	Y44	Z44	X45	Y45	Z45	X46	Y46	Z46	X47	Y47	Z47	X48	Y48	Z48	X49	Y49	Z49	X50	Y50	Z50	X51	Y51	Z51	X52	Y52	Z52	X53	Y53	Z53	X54	Y54	Z54	X55	Y55	Z55	

1	0	882.7232666015625	973.7599487304688	147.4070892333984	878.9622802734375	974.0379638671875	18.9688892364502	881.09814453125	1025.04296875	87.92848968505859	1098.749145507812	1209.213745117188	65.67720031738281	861.433837890625	1144.165771484375	76.64403533935547	898.1449584960938	1392.989135742188	56.66413497924805	1054.378295898438	1333.7861328125	60.89179229736328	849.9735107421875	1255.598510742188	128.1851348876953	887.481689453125	1354.44970703125	-44.422119140625	972.93310546875	1370.487915039062	-101.0604782104492	958.110595703125	1249.874755859375	-168.7378845214844	982.6057739257812	1046.1865234375	-177.885986328125	914.9404296875	1032.715209960938	-127.3422317504883	1073.262817382812	802.9705200195312	-119.8174667358398	1042.478759765625	792.331787109375	-180.6876220703125	1000.034606933594	941.91455078125	-181.8585205078125	1075.561645507812	642.0133056640625	-115.0963745117188	1038.399658203125	721.9827270507812	-175.3035430908203	1086.46484375	724.2473754882812	-133.4375152587891	959.3740234375	1380.140991210938	219.01513671875	951.3270874023438	1315.819213867188	284.5036926269531	963.704833984375	1047.068725585938	319.5158996582031	917.6106567382812	1039.38134765625	237.7335815429688	1072.972900390625	820.6084594726562	264.2472534179688	1043.0673828125	804.7394409179688	333.2142639160156	991.6627197265625	980.1376953125	327.2905578613281	1090.521118164062	646.8654174804688	272.6598815917969	1103.778198242188	719.3289184570312	275.9601440429688	1058.536376953125	720.60595703125	328.6548767089844	927.609130859375	1588.077392578125	139.1649017333984	1095.266235351562	1621.653686523438	19.52998542785645	1086.038696289062	1619.672119140625	120.6578369140625	914.0291748046875	1582.111328125	-4.226661205291748	957.313232421875	912.2655639648438	-87.38916015625	964.1914672851562	914.3167724609375	252.9850921630859	1069.06787109375	941.2993774414062	207.8701629638672	1083.175659179688	935.4131469726562	-33.26217651367188	974.1901245117188	451.8217468261719	-63.43788146972656	983.2117309570312	592.633056640625	-75.25614166259766	873.7325439453125	41.82432556152344	-36.14574432373047	1078.415893554688	31.26662635803223	23.69095611572266	1019.574340820312	29.8658618927002	75.10149383544922	998.4806518554688	36.0173225402832	-48.96965408325195	838.23828125	36.57393264770508	30.33902740478516	960.9281616210938	450.404052734375	216.9693603515625	1014.747741699219	706.87939453125	251.5628967285156	888.9185180664062	41.24636840820312	175.5211334228516	959.6492309570312	332.9885559082031	204.6122283935547	1078.991577148438	31.86490821838379	112.874137878418	989.9535522460938	27.58198738098145	188.5195465087891	836.5731201171875	44.88766479492188	129.9256439208984	921.1231079101562	239.5170440673828	-61.46284484863281	1009.5263671875	20.8745059967041	61.70201873779297	nan	nan	nan	nan	nan	nan	
2	0.01	882.6737060546875	973.7908325195312	147.3920135498047	878.9325561523438	974.035400390625	18.95272636413574	881.0756225585938	1025.05517578125	87.92178344726562	1098.778686523438	1209.134399414062	65.68670654296875	861.4423217773438	1144.216796875	76.67613220214844	898.2169799804688	1393.030395507812	56.68306350708008	1054.464721679688	1333.77294921875	60.88391876220703	849.9686279296875	1255.661499023438	128.2087707519531	887.5355224609375	1354.48291015625	-44.40486907958984	972.9515380859375	1370.482543945312	-101.0532150268555	958.0762939453125	1249.872436523438	-168.7219543457031	982.3690185546875	1046.129272460938	-177.8442077636719	914.778564453125	1032.770141601562	-127.2370223999023	1072.867553710938	802.8521728515625	-119.8366775512695	1042.026733398438	792.2518920898438	-180.6190490722656	999.7753295898438	941.9127197265625	-181.8685455322266	1074.949951171875	641.9598999023438	-115.1560287475586	1037.773559570312	721.8486938476562	-175.2402954101562	1085.99853515625	724.1715087890625	-133.4624328613281	959.5281982421875	1380.129272460938	219.0323791503906	951.3204956054688	1315.790771484375	284.4445495605469	963.630859375	1047.114624023438	319.6249389648438	917.6289672851562	1039.359497070312	237.7120971679688	1073.031860351562	820.720458984375	264.7473449707031	1042.981567382812	804.7509155273438	333.6616821289062	991.43212890625	980.1095581054688	327.3934326171875	1090.560791015625	646.910888671875	273.2365112304688	1103.793334960938	719.37255859375	276.6305541992188	1058.397705078125	720.6686401367188	329.1654663085938	927.8170776367188	1588.032836914062	139.1569213867188	1095.336059570312	1621.681884765625	19.36668586730957	1086.127563476562	1619.765747070312	120.511344909668	914.0680541992188	1582.032104492188	-4.246912479400635	957.3021850585938	912.2565307617188	-87.39312744140625	964.1294555664062	914.3377075195312	252.9889526367188	1069.016479492188	941.3046264648438	207.9033813476562	1083.1474609375	935.3880004882812	-33.24156188964844	974.225830078125	451.8010864257812	-63.40719604492188	983.1718139648438	592.6231079101562	-75.26303100585938	873.7339477539062	41.83162689208984	-36.12717437744141	1078.42041015625	31.25276756286621	23.67343521118164	1019.568298339844	29.86345672607422	75.10663604736328	998.4807739257812	36.03260040283203	-48.95605087280273	838.23681640625	36.55340194702148	30.35079193115234	960.8099975585938	450.3680725097656	216.9980773925781	1014.681274414062	706.8927612304688	251.5687561035156	888.906494140625	41.2342643737793	175.5262756347656	959.4054565429688	332.9682006835938	204.7262115478516	1078.980590820312	31.87722396850586	112.8815994262695	989.9417114257812	27.57782554626465	188.5350189208984	836.5634765625	44.87825012207031	129.9475250244141	921.1663818359375	239.4976806640625	-61.44082260131836	1009.528381347656	20.87267684936523	61.7136344909668	nan	nan	nan	nan	nan	nan	
3	0.02	882.6096801757812	973.8275756835938	147.3696899414062	878.9013061523438	974.033935546875	18.92899703979492	881.0413208007812	1025.073974609375	87.90714263916016	1098.821655273438	1209.042358398438	65.68905639648438	861.4436645507812	1144.28076171875	76.71049499511719	898.31396484375	1393.077880859375	56.70794677734375	1054.571166992188	1333.75732421875	60.86788558959961	849.961669921875	1255.740112304688	128.2331390380859	887.6026611328125	1354.526245117188	-44.38712692260742	972.9767456054688	1370.477905273438	-101.0476684570312	958.03125	1249.87109375	-168.7052764892578	982.0855712890625	1046.066162109375	-177.7865295410156	914.5809936523438	1032.829956054688	-127.095085144043	1072.39013671875	802.7198486328125	-119.8502197265625	1041.462768554688	792.1417846679688	-180.5293121337891	999.4309692382812	941.9097900390625	-181.8688812255859	1074.213012695312	641.8863525390625	-115.1939544677734	1037.03271484375	721.69482421875	-175.1497039794922	1085.416015625	724.0687255859375	-133.4818725585938	959.740478515625	1380.110107421875	219.0505828857422	951.3232421875	1315.748046875	284.3703918457031	963.528076171875	1047.1708984375	319.7449645996094	917.6809692382812	1039.32373046875	237.6599578857422	1073.10693359375	820.8303833007812	265.4259948730469	1042.834350585938	804.7710571289062	334.246826171875	991.1369018554688	980.0902709960938	327.5462036132812	1090.630493164062	646.9588012695312	274.0274658203125	1103.836303710938	719.4210815429688	277.5262756347656	1058.219116210938	720.7333984375	329.8418579101562	928.0645141601562	1587.982421875	139.1464233398438	1095.418334960938	1621.710815429688	19.16640663146973	1086.25146484375	1619.885009765625	120.315788269043	914.1222534179688	1581.930908203125	-4.273643493652344	957.2949829101562	912.243408203125	-87.39977264404297	964.0537719726562	914.3637084960938	252.9917144775391	1068.939453125	941.3092041015625	207.9478454589844	1083.1103515625	935.3572387695312	-33.21628952026367	974.2691040039062	451.7763977050781	-63.37031555175781	983.10498046875	592.6258544921875	-75.28096008300781	873.735595703125	41.84112930297852	-36.10534286499023	1078.426513671875	31.23530960083008	23.6543140411377	1019.562194824219	29.86219787597656	75.11160278320312	998.4794921875	36.05009078979492	-48.93936157226562	838.2332153320312	36.53498077392578	30.36281967163086	960.6727294921875	450.3345031738281	217.0372619628906	1014.629516601562	706.9002075195312	251.5569000244141	888.89453125	41.21971893310547	175.5343170166016	959.133544921875	332.947021484375	204.8485107421875	1078.967041015625	31.8921947479248	112.8909072875977	989.9288940429688	27.57494354248047	188.5515899658203	836.5521240234375	44.86474227905273	129.9722595214844	921.218017578125	239.4746551513672	-61.41524887084961	1009.531860351562	20.87300491333008	61.72660064697266	nan	nan	nan	nan	nan	nan	
4	0.03	882.5353393554688	973.8681030273438	147.3398284912109	878.8744506835938	974.0341186523438	18.89777565002441	880.992919921875	1025.099853515625	87.88172149658203	1098.878662109375	1208.945556640625	65.67936706542969	861.4349975585938	1144.354858398438	76.74247741699219	898.43505859375	1393.127807617188	56.73747634887695	1054.691528320312	1333.739868164062	60.8419303894043	849.9534912109375	1255.830322265625	128.2540283203125	887.6804809570312	1354.57861328125	-44.37170028686523	973.0091552734375	1370.475341796875	-101.0458374023438	957.976806640625	1249.871215820312	-168.6901702880859	981.7720947265625	1046.004028320312	-177.7128143310547	914.3576049804688	1032.889526367188	-126.9186630249023	1071.856689453125	802.5820922851562	-119.847282409668	1040.818237304688	792.00537109375	-180.4213256835938	999.0104370117188	941.9044799804688	-181.8526306152344	1073.39306640625	641.7869873046875	-115.186637878418	1036.2236328125	721.5330810546875	-175.0313262939453	1084.74658203125	723.9373168945312	-133.4812164306641	960.0071411132812	1380.083740234375	219.0672302246094	951.34228515625	1315.692138671875	284.2879028320312	963.394775390625	1047.233032226562	319.86474609375	917.7794799804688	1039.272583007812	237.5678253173828	1073.199584960938	820.9207763671875	266.2767944335938	1042.617553710938	804.8027954101562	334.9545593261719	990.783935546875	980.0834350585938	327.7493591308594	1090.740356445312	647.00244140625	275.0354309082031	1103.916259765625	719.4728393554688	278.6273803710938	1058.00439453125	720.7954711914062	330.669921875	928.3345336914062	1587.93212890625	139.1331787109375	1095.507202148438	1621.73583984375	18.94051170349121	1086.410034179688	1620.02392578125	120.0756225585938	914.19287109375	1581.812133789062	-4.306599140167236	957.2944946289062	912.2266235351562	-87.41053009033203	963.9684448242188	914.3933715820312	252.9922027587891	1068.834716796875	941.3120727539062	208.0021209716797	1083.065307617188	935.3226318359375	-33.187744140625	974.3169555664062	451.7493591308594	-63.32963180541992	983.0005493164062	592.6497192382812	-75.31632995605469	873.7365112304688	41.85207748413086	-36.08198547363281	1078.4345703125	31.21691131591797	23.63664054870605	1019.556762695312	29.86257171630859	75.11579132080078	998.4764404296875	36.06778717041016	-48.92124557495117	838.2277221679688	36.52053451538086	30.37417030334473	960.5255737304688	450.3082275390625	217.0843505859375	1014.611083984375	706.8949584960938	251.5179443359375	888.8837280273438	41.20362091064453	175.5448760986328	958.8617553710938	332.9276123046875	204.9638519287109	1078.951538085938	31.90886497497559	112.9015274047852	989.916748046875	27.57370376586914	188.5672302246094	836.5398559570312	44.84781646728516	129.9973907470703	921.2734375	239.4502258300781	-61.38822174072266	1009.536682128906	20.87627792358398	61.73986053466797	nan	nan	nan	nan	nan	nan	
